<svg xmlns="http://www.w3.org/2000/svg" width="12" height="17" viewBox="0 0 12 17" fill="none">
<path d="M7.37125 16.6952C6.85895 16.6952 6.344 16.6952 5.8317 16.6952C5.8317 15.8601 5.8317 15.0278 5.8317 14.1687C5.43885 14.1687 5.05927 14.1687 4.68235 14.1687C4.5921 14.1687 4.61068 14.2434 4.61068 14.2968C4.61068 15.0971 4.61068 15.8975 4.61068 16.6952C4.09838 16.6952 3.58343 16.6952 3.07113 16.6952C3.07113 15.8441 3.07113 14.9931 3.07113 14.1234C2.03592 14.1234 1.01929 14.1234 0.0106176 14.1234C0.00265439 14.0967 0 14.086 0 14.0807C0.0955581 13.5125 0.191116 12.9416 0.28402 12.3733C0.297292 12.2879 0.347725 12.2933 0.406122 12.2933C0.71934 12.2933 1.03521 12.2933 1.34843 12.2933C1.7811 12.2906 1.98548 12.0799 1.98548 11.6423C1.98548 9.42805 1.98548 7.21376 1.98548 5.00215C1.98548 4.52194 1.6935 4.20714 1.21571 4.18046C0.963544 4.16712 0.711377 4.16712 0.45921 4.16445C0.305255 4.16179 0.153955 4.16445 0 4.16445C0 3.61222 0 3.07599 0 2.52375C1.02725 2.52375 2.04654 2.52375 3.07113 2.52375C3.07113 1.67005 3.07113 0.835025 3.07113 0C3.58343 0 4.09838 0 4.61068 0C4.61068 0.787004 4.61068 1.57401 4.60537 2.36101C4.60537 2.45439 4.63457 2.48373 4.72747 2.48106C4.99291 2.47039 5.25835 2.47039 5.52379 2.46773C5.622 2.46773 5.72287 2.46773 5.8317 2.46773C5.8317 1.62737 5.8317 0.813683 5.8317 0C6.344 0 6.85895 0 7.37125 0C7.36859 0.0533562 7.36594 0.106712 7.36594 0.160069C7.36594 0.872374 7.36594 1.58201 7.36594 2.29432C7.36594 2.53976 7.36594 2.53709 7.61545 2.56377C8.29763 2.63847 8.96919 2.76119 9.60093 3.05731C10.1955 3.33476 10.66 3.74027 10.9042 4.36988C11.0794 4.8234 11.1219 5.29294 11.0874 5.77048C11.029 6.58683 10.6521 7.20843 9.94866 7.62461C9.90088 7.65395 9.8531 7.68063 9.78674 7.71798C9.82921 7.73932 9.84779 7.74732 9.86903 7.75533C10.1318 7.85404 10.4079 7.9314 10.66 8.05946C11.2732 8.37159 11.7138 8.84113 11.8864 9.52942C12.0616 10.2177 12.0217 10.906 11.8519 11.5863C11.7032 12.1759 11.4245 12.6934 10.9573 13.0936C10.4291 13.5471 9.7947 13.7873 9.12845 13.9206C8.59757 14.0247 8.05342 14.0674 7.51193 14.1261C7.39513 14.1394 7.36328 14.1768 7.36594 14.2888C7.3739 14.4942 7.36859 14.697 7.36859 14.9024C7.36859 15.4946 7.36859 16.0949 7.37125 16.6952ZM4.63988 12.2933C5.11501 12.2933 5.56626 12.3039 6.01485 12.2906C6.62536 12.2719 7.23322 12.2052 7.81187 11.9918C8.17553 11.8584 8.5206 11.6797 8.72764 11.3302C9.13376 10.6499 8.92141 9.7882 8.23923 9.38536C7.74286 9.0919 7.19075 8.96118 6.62005 8.9345C6.01485 8.90782 5.40965 8.91583 4.80445 8.89982C4.67173 8.89715 4.63457 8.9345 4.63457 9.07056C4.63988 10.0923 4.63722 11.1141 4.63722 12.1359C4.63988 12.1839 4.63988 12.2319 4.63988 12.2933ZM4.64253 5.81049C4.64253 6.28536 4.64253 6.7629 4.64253 7.23777C4.64253 7.31247 4.64518 7.36316 4.74605 7.36583C5.52113 7.37917 6.29356 7.3765 7.05006 7.17375C7.44291 7.06703 7.78533 6.87495 8.02423 6.54681C8.38788 6.04526 8.26577 5.21557 7.78533 4.81273C7.39513 4.48726 6.92 4.36187 6.43424 4.32185C5.87948 4.2765 5.32205 4.28984 4.76463 4.27117C4.6558 4.2685 4.64253 4.31919 4.64253 4.40989C4.64253 4.87676 4.63988 5.34363 4.64253 5.81049Z" fill="white"/>
</svg>