<svg xmlns="http://www.w3.org/2000/svg" width="147" height="146" viewBox="0 0 147 146" fill="none">
  <mask id="path-1-inside-1_54_392" fill="white">
    <path d="M146.982 73C146.982 58.562 142.701 44.4482 134.68 32.4434C126.659 20.4386 115.259 11.082 101.92 5.55679C88.5816 0.0315969 73.9044 -1.41405 59.7443 1.40267C45.5843 4.2194 32.5774 11.172 22.3686 21.3812C12.1598 31.5904 5.20751 44.5978 2.3909 58.7584C-0.425708 72.919 1.01988 87.5969 6.54485 100.936C12.0698 114.275 21.426 125.676 33.4303 133.697C45.4346 141.719 59.5479 146 73.9853 146V73H146.982Z"/>
  </mask>
  <path d="M146.982 73C146.982 58.562 142.701 44.4482 134.68 32.4434C126.659 20.4386 115.259 11.082 101.92 5.55679C88.5816 0.0315969 73.9044 -1.41405 59.7443 1.40267C45.5843 4.2194 32.5774 11.172 22.3686 21.3812C12.1598 31.5904 5.20751 44.5978 2.3909 58.7584C-0.425708 72.919 1.01988 87.5969 6.54485 100.936C12.0698 114.275 21.426 125.676 33.4303 133.697C45.4346 141.719 59.5479 146 73.9853 146V73H146.982Z" stroke="#018FFF" stroke-width="40" mask="url(#path-1-inside-1_54_392)"/>
  <mask id="path-2-inside-2_54_392" fill="white">
    <path d="M73.9854 146C83.5715 146 93.0637 144.112 101.92 140.443C110.777 136.775 118.824 131.397 125.602 124.619C132.38 117.84 137.757 109.793 141.426 100.936C145.094 92.0791 146.982 82.5865 146.982 73L73.9854 73L73.9854 146Z"/>
  </mask>
  <path d="M73.9854 146C83.5715 146 93.0637 144.112 101.92 140.443C110.777 136.775 118.824 131.397 125.602 124.619C132.38 117.84 137.757 109.793 141.426 100.936C145.094 92.0791 146.982 82.5865 146.982 73L73.9854 73L73.9854 146Z" stroke="#F5FBFE" stroke-width="40" mask="url(#path-2-inside-2_54_392)"/>
  <mask id="path-3-inside-3_54_392" fill="white">
    <path d="M119.206 130.305C126.732 124.366 133.013 117.004 137.693 108.637C142.373 100.271 145.359 91.0641 146.481 81.5435C147.603 72.0229 146.838 62.3745 144.232 53.1493C141.625 43.924 137.227 35.3025 131.288 27.7771L73.9854 73L119.206 130.305Z"/>
  </mask>
  <path d="M119.206 130.305C126.732 124.366 133.013 117.004 137.693 108.637C142.373 100.271 145.359 91.0641 146.481 81.5435C147.603 72.0229 146.838 62.3745 144.232 53.1493C141.625 43.924 137.227 35.3025 131.288 27.7771L73.9854 73L119.206 130.305Z" stroke="#FAD679" stroke-width="40" mask="url(#path-3-inside-3_54_392)"/>
  <ellipse cx="73.9857" cy="72.9997" rx="55.4408" ry="55.443" fill="#1B0E4E"/>
  <ellipse cx="73.9857" cy="72.9997" rx="55.4408" ry="55.443" fill="url(#paint0_linear_54_392)"/>
  <defs>
    <linearGradient id="paint0_linear_54_392" x1="73.9857" y1="17.5566" x2="73.9857" y2="128.443" gradientUnits="userSpaceOnUse">
      <stop stop-color="#1B124E" stop-opacity="0.2"/>
      <stop offset="0.933702" stop-color="#0F0B38"/>
    </linearGradient>
  </defs>
</svg>