<svg xmlns="http://www.w3.org/2000/svg" width="16" height="16" viewBox="0 0 16 16" fill="none">
<path d="M-0.00146484 2C-0.00146484 3.10457 0.893966 4 1.99854 4C3.1031 4 3.99854 3.10457 3.99854 2C3.99854 0.895431 3.1031 0 1.99854 0C0.893966 0 -0.00146484 0.895431 -0.00146484 2ZM5.99854 14C5.99854 15.1046 6.89397 16 7.99854 16C9.1031 16 9.99854 15.1046 9.99854 14C9.99854 12.8954 9.1031 12 7.99854 12C6.89397 12 5.99854 12.8954 5.99854 14ZM-0.00146484 14C-0.00146484 15.1046 0.893966 16 1.99854 16C3.1031 16 3.99854 15.1046 3.99854 14C3.99854 12.8954 3.1031 12 1.99854 12C0.893966 12 -0.00146484 12.8954 -0.00146484 14ZM-0.00146484 8C-0.00146484 9.10457 0.893966 10 1.99854 10C3.1031 10 3.99854 9.10457 3.99854 8C3.99854 6.89543 3.1031 6 1.99854 6C0.893966 6 -0.00146484 6.89543 -0.00146484 8ZM5.99854 8C5.99854 9.10457 6.89397 10 7.99854 10C9.1031 10 9.99854 9.10457 9.99854 8C9.99854 6.89543 9.1031 6 7.99854 6C6.89397 6 5.99854 6.89543 5.99854 8ZM13.9985 0C12.894 0 11.9985 0.895431 11.9985 2C11.9985 3.10457 12.894 4 13.9985 4C15.1031 4 15.9985 3.10457 15.9985 2C15.9985 0.895431 15.1031 0 13.9985 0ZM5.99854 2C5.99854 3.10457 6.89397 4 7.99854 4C9.1031 4 9.99854 3.10457 9.99854 2C9.99854 0.895431 9.1031 0 7.99854 0C6.89397 0 5.99854 0.895431 5.99854 2ZM11.9985 8C11.9985 9.10457 12.894 10 13.9985 10C15.1031 10 15.9985 9.10457 15.9985 8C15.9985 6.89543 15.1031 6 13.9985 6C12.894 6 11.9985 6.89543 11.9985 8ZM11.9985 14C11.9985 15.1046 12.894 16 13.9985 16C15.1031 16 15.9985 15.1046 15.9985 14C15.9985 12.8954 15.1031 12 13.9985 12C12.894 12 11.9985 12.8954 11.9985 14Z" fill="white"/>
</svg>