<svg xmlns="http://www.w3.org/2000/svg" width="25" height="21" viewBox="0 0 25 21" fill="none">
  <path d="M12.5 4.43272C15.625 4.43272 18.1818 6.92612 18.1818 9.97361C18.1818 10.6939 18.0114 11.3588 17.7841 11.9683L21.0795 15.2375C22.7841 13.8522 24.1477 12.0237 25 9.97361C23.0114 5.09762 18.1818 1.66227 12.5 1.66227C10.9091 1.66227 9.375 1.93931 7.95455 2.43799L10.3977 4.82058C11.0795 4.59894 11.7614 4.43272 12.5 4.43272ZM1.13636 1.44063L3.75 3.98945L4.26136 4.43272C2.38636 5.87335 0.909091 7.75726 0 9.97361C1.98864 14.8496 6.81818 18.285 12.5 18.285C14.2614 18.285 15.9659 17.9525 17.5 17.343L17.9545 17.7863L21.25 21L22.6705 19.6148L2.61364 0L1.13636 1.44063ZM7.44318 7.53562L9.20455 9.2533C9.14773 9.47493 9.09091 9.69657 9.09091 9.97361C9.09091 11.8021 10.625 13.2982 12.5 13.2982C12.7841 13.2982 13.0114 13.2427 13.2386 13.2427L15 14.9604C14.2614 15.2929 13.4091 15.5145 12.5 15.5145C9.375 15.5145 6.81818 13.0211 6.81818 9.97361C6.81818 9.08707 7.04545 8.25594 7.44318 7.53562ZM12.3295 6.64908L15.9091 10.1398V9.97361C15.9091 8.14512 14.375 6.64908 12.5 6.64908H12.3295Z" fill="#616A8B"/>
</svg>