<svg xmlns="http://www.w3.org/2000/svg" width="182" height="163" viewBox="0 0 182 163" fill="none">
  <path d="M151.474 16.029C157.974 14.6698 161.863 18.819 169.473 14.5242C175.473 10.1436 179.973 3.34947 181.473 0.5V163H2.71921V55.7323C-0.280846 53.9294 1.19613 54.0565 2.71921 54.4748V55.7323C3.68354 56.3119 5.11043 57.0908 7.14705 58.1236C17.6128 63.431 31.1355 68.3742 37.9785 69.7011C44.8215 71.0279 55.8532 69.7334 69.5393 47.1773C83.2253 24.6211 96.7616 28.4921 105.476 30.0741C113.587 31.5465 131.975 37.1878 135.975 36.0933C139.974 34.9989 144.974 17.3882 151.474 16.029Z" fill="url(#paint0_linear_54_507)"/>
  <defs>
    <linearGradient id="paint0_linear_54_507" x1="197.544" y1="24.2894" x2="104.931" y2="138.898" gradientUnits="userSpaceOnUse">
      <stop stop-color="#0097E8" stop-opacity="0.2"/>
      <stop offset="1" stop-color="#018FFF" stop-opacity="0"/>
    </linearGradient>
  </defs>
</svg>